<?xml version="1.0" encoding="utf-8"?>
<!-- Generator: Adobe Illustrator 27.3.1, SVG Export Plug-In . SVG Version: 6.00 Build 0)  -->
<svg version="1.1" id="Layer_1" xmlns="http://www.w3.org/2000/svg" xmlns:xlink="http://www.w3.org/1999/xlink" x="0px" y="0px"
	 viewBox="0 0 2500 2500" style="enable-background:new 0 0 2500 2500;" xml:space="preserve">
<style type="text/css">
	.st0{fill-rule:evenodd;clip-rule:evenodd;}
	.st1{fill-rule:evenodd;clip-rule:evenodd;fill:#FFFFFF;}
</style>
<g>
	<path class="st0" d="M2144.4,1664.1c0,0,157,2.8,238-6.7v52.9c0,0-7.7-29.8-68.4-23.1l-100.6,11.2v131.1h159.5v29.1h-160.2v149.3
		l75,7c14.4,1,71.2,9.5,98.1-31.9l-4.6,29.1c0,0-0.7,25.6-34,25.6h-210.6c0,0,18.9-14.4,18.9-53.6v-214.8
		C2155.6,1769.2,2157.3,1712.8,2144.4,1664.1L2144.4,1664.1z M1779.5,1660.6h78.1v286c0,0-0.7,77.1,88.3,77.1
		c89,0,105.5-75.4,105.5-121.6v-179.1c0,0,2.8-43.1-23.8-62.4h63.8c0,0-6,23.8-6,55v217.6c0,0,12.6,117.1-144.4,117.1
		c-156.6,0-148.2-89.4-148.2-119.2v-206.8C1792.9,1724.4,1793.9,1691.8,1779.5,1660.6L1779.5,1660.6z M1555.3,1651.5
		c141.2,0,191.4,88.7,191.4,197c0,91.8-61.7,169.3-144.7,191c19.3,1.4,43.8,6.7,58.2,18.2c24.9,20,37.5,43.4,72.6,43.4v17.5
		c0,0-35,3.2-72.6-13.3c-31.5-14.4-56.8-42.7-116.7-60.3c-134.6-4.9-179.4-91.5-179.4-196.6
		C1363.9,1740.1,1414,1651.5,1555.3,1651.5L1555.3,1651.5z M853.6,1658.1h77.5l198.4,267.4l16.8-217.6c0,0,7-30.8-23.8-48.7h51.2
		v374.3H1133L914.3,1745l-14.4,226.1c0,0-7.4,40.6,19.3,62.4h-50.5v-323.1C868.7,1710.3,868.4,1684.7,853.6,1658.1L853.6,1658.1z
		 M1244,1660.2h80.6c0,0-11.2,57.8-11.2,131.1v181.9c0,0-0.7,51.5,3.9,63.1H1250c0,0,4.9-35.4,4.9-73.9v-154.2
		C1254.9,1808.1,1259.8,1720.2,1244,1660.2L1244,1660.2z M725.4,1660.2H806c0,0-11.2,57.8-11.2,131.1v181.9c0,0-0.7,51.5,4.2,63.1
		h-68c0,0,5.3-35.4,5.3-73.9v-154.2C736.2,1808.1,741.1,1720.2,725.4,1660.2L725.4,1660.2z M468.1,1663h75c0,0-6.3,122.7-6.3,161.2
		v180.5c0,0,36.1,9.8,82,9.8c45.9,0,64.1-14.7,79.6-39.6c0,0-1.8,38.2-20,59.9H470.2c0,0,7.7-45.9,7.7-100.6v-167.5
		C477.9,1766.8,480,1707.9,468.1,1663L468.1,1663z M310.8,1651.1c0,0,66.6,1.1,104.8,17.9v44.1c0,0-28.7-34-102-34
		s-143,52.6-143,169.3c0,116.7,65.5,173.1,143.3,173.1c78.1,0,109.3-55.4,109.3-55.4s8.8,53.3-37.8,70.5c0,0-45.2,8.4-69.7,8.4
		c-24.5,0-205.4,11.9-205.4-194.5C110.3,1644.4,277.5,1651.1,310.8,1651.1L310.8,1651.1z M115.9,2149.8h2273.8v14H115.9V2149.8z
		 M115.9,1554.7h2273.8v14.4H115.9V1554.7z M967.5,1321.3V404.9c0-64.1,0-184.3,292.3-184c288.4,0.4,288.4,110.7,288.4,186.8v419.2
		H1285V323.6c0,0,3.2-29.1-24.5-29.1c-27,0-27.7,20.7-27.7,33.3v1026.2c0,0-3.2,37.8,21.7,37.8c0,0,30.5,2.5,30.5-35.4V873.8h263.2
		v426.1c0,97.1-49.1,172.1-294.4,172.1C1064.3,1472.4,967.5,1429.3,967.5,1321.3L967.5,1321.3z"/>
	<path class="st1" d="M1556.6,1678.1c93.9,0,130,77.5,130,172.1c0,94.6-41,171.7-130,171.7c-89.4,0-130.4-77.1-130.4-171.7
		C1426.3,1755.5,1462.4,1678.1,1556.6,1678.1z"/>
</g>
</svg>
