<?xml version="1.0" encoding="utf-8"?>
<!-- Generator: Adobe Illustrator 27.3.1, SVG Export Plug-In . SVG Version: 6.00 Build 0)  -->
<svg version="1.1" id="Layer_1" xmlns="http://www.w3.org/2000/svg" xmlns:xlink="http://www.w3.org/1999/xlink" x="0px" y="0px"
	 viewBox="0 0 2500 2500" style="enable-background:new 0 0 2500 2500;" xml:space="preserve">
<style type="text/css">
	.st0{fill-rule:evenodd;clip-rule:evenodd;}
</style>
<g>
	<path class="st0" d="M135.3,793.7l-45.9-2.4l-18.9-3.8l-3.8-7.1c0-6.6,4.7-9.5,14.2-9.5h475c222.6,0,378.9,67.7,469.8,203.7
		c52.1,78.6,78.1,171.9,78.1,279.9c0,56.4-8.5,110.8-26.1,163.4c-19.9,55.4-47.4,104.2-82.9,147.8c-38.8,45.9-86.2,81.5-140.7,107.5
		c-58.3,26.5-123.6,40.3-197,40.3H51.5c-9.9,0-14.7-3.3-14.7-9c0-6.2,7.1-9.5,20.4-9.5l116-7.1c18-2.4,30.8-7.6,37-14.7l11.8-16.6
		c4.3-11.3,6.6-28.4,7.1-51.6V853.9c0-29.4-16.6-47.4-48.8-54.5L135.3,793.7L135.3,793.7z M391,806.5l-3.3,18.9v834
		c0,9.5,1.9,16.1,5.7,18.5l18.9,2.8h62.5l144.9-5.2c38.8-4.3,72-10.4,98-18.9c25.9-9.5,50.2-22.9,72-39.8
		c18.9-15.6,38.4-37.9,59.7-66.3c35.5-46.4,61.1-105.6,76.7-178.1c9.5-47.3,14.2-93.3,14.2-137.3c0-38.8-5.7-80.5-17.5-125.5
		c-16.6-64.9-41.7-121.7-77.2-170C777,845.9,664.3,799.4,508.5,799.4h-96.1C401.5,798.5,394.3,800.8,391,806.5L391,806.5z
		 M1197.1,1706.4c-0.9-5.7,3.8-8.1,14.2-8.1l33.2-1c18-2.4,28.9-8.5,33.2-18l6.2-34.1v-275.2c0-10.4-3.8-18.5-10.9-23.2l-24.6-2.4
		l-33.2,9l-18-1c-2.4-5.7,4.7-10.9,21.3-15.6c39.3-10.4,73.9-23.7,103.3-40.3c18-10.4,30.8-16.1,36.5-18.5l14.2-1.4
		c4.7,0.9,7.1,10.4,7.1,27.5V1651c0,16.6,3.8,28.4,10.9,35.5c8.5,8.5,28.4,12.8,59.2,12.8c10.9,0,16.6,2.4,17.5,7.6
		c0,4.3-3.3,5.7-9,5.7h-252.4C1200,1712.6,1197.1,1710.2,1197.1,1706.4L1197.1,1706.4z M2314.9,1365.4
		c-23.2,24.2-38.8,52.6-47.4,86.7v201.3c0,18,6.2,30.8,18.9,38.8l28.9,5.2l30.3,3.3c7.1,1,10,2.4,10,6.2l-1.4,3.3l-8.1,2.4h-253.4
		c-7.6,0-11.8-2.4-11.8-6.2l7.1-5.7l42.6-3.3c16.6-2.8,27-8.5,32.7-17l7.1-21.3v-284.2l-4.8-20.8l-8-4.7c-2.4-2.4-6.2-3.8-11.9-4.7
		c-7.1-0.5-15.6,1-24.6,4.7l-24.1,6.6l-13.8-3.3c-2.4-3.3-1.4-5.7,1.9-7.1l20.4-8.5c46.4-13.7,83.8-27.9,109.9-42.6l32.2-17.5
		l14.2,0.9l5.7,11.9v104.2c35.5-57.8,63.9-93.3,83.4-105.1c11.8-7.1,23.2-12.8,31.7-15.1l16.6-1.4c10.4-1,22.3,2.4,35.5,10.9
		c18,10.4,27.5,26,28.4,45.9c1,16.6-3.8,29.4-14.2,39.3c-9.5,8.1-18.9,10.4-27.5,8.1c-8.1-1.4-14.2-4.7-18.5-9.5l-13.3-16.6
		c-10.4-15.2-20.4-19.9-32.2-15.6C2343.8,1338.4,2329.6,1348.8,2314.9,1365.4L2314.9,1365.4z M1325,976.1c-17.5,0-31.7,6.2-43.6,18
		c-12.8,11.8-18.9,27-18,44.5c-0.9,16.6,5.2,30.8,18,42.6c11.8,11.8,26,18,43.6,18c16.6,0,31.3-6.2,43.1-18
		c11.8-11.8,18.5-26,18.5-42.6c0-17.5-6.6-32.7-18.5-44.5C1356.3,982.2,1341.6,976.1,1325,976.1z M1576,1354
		c17-22.7,38.4-41.7,63.9-56.8c22.7-13.3,45.5-21.8,69.2-26.1l87.6-5.2c31.7,1.4,61.1,7.6,87.6,19.4
		c63.9,28.4,104.2,80.5,119.3,156.3c15.6,76.7,2.4,141.6-39.3,194.2c-35.5,44.5-82.4,72.9-141.6,85.2c-62,13.7-119.8,9.5-171.9-11.8
		c-67.7-27.5-108.9-81.9-122.2-161.5C1516.8,1472.4,1532.5,1408.5,1576,1354L1576,1354z M1853.6,1332.7
		c-28.9-32.2-65.4-46.4-109.4-42.6c-42.6,4.3-75.3,27.9-96.6,72.9c-19.4,40.7-26.5,90.5-19.4,149.2c5.2,58.3,23.7,104.7,53.5,140.2
		c31.7,37.4,67.7,53,108,46c42.2-8.1,73-30.8,93.3-68.7c19.9-38.8,27-89,22.2-153C1899.5,1412.8,1883,1365.4,1853.6,1332.7
		L1853.6,1332.7z"/>
</g>
</svg>
