<?xml version="1.0" encoding="utf-8"?>
<!-- Generator: Adobe Illustrator 27.3.1, SVG Export Plug-In . SVG Version: 6.00 Build 0)  -->
<svg version="1.1" id="Layer_1" xmlns="http://www.w3.org/2000/svg" xmlns:xlink="http://www.w3.org/1999/xlink" x="0px" y="0px"
	 viewBox="0 0 2500 2500" style="enable-background:new 0 0 2500 2500;" xml:space="preserve">
<style type="text/css">
	.st0{fill-rule:evenodd;clip-rule:evenodd;}
	.st1{fill-rule:evenodd;clip-rule:evenodd;fill:#FFFFFF;}
</style>
<g>
	<path class="st0" d="M857.1,1068.4c43.7,70.1,42.5,178.9-3.7,247.4c-54.4,85.7-148.8,126.6-248.6,108.4
		c-79.6-13.2-158.7-83.7-180.6-162.4c-29.7-98.1,2.1-200.8,83.7-264.3c63.5-50.7,167.4-63.1,241.6-26.4
		C791.5,989.2,834.4,1027.2,857.1,1068.4L857.1,1068.4z M1585.6,982.2h-144.3l143.5-25.6h0.8V982.2z"/>
	<path class="st1" d="M842.2,1089.4c36.7,61.4,31.7,156.2-7.8,214.8c-49.5,75.9-132.8,114.2-222.2,98.5c-76.3-12-151.7-82-169-157.9
		c-23.1-90.3,11.1-178.5,86.2-232.9c57.7-43.7,151.3-52.4,216.1-17.3C784.5,1013.1,822.4,1050.7,842.2,1089.4z"/>
	<path class="st0" d="M98.9,1356.4H378v23.7H73.7v-373.5h25.1V1356.4z M371.4,1083.5h-21c8.7-25.1,19.4-51.3,29.3-76.9h30.1
		L371.4,1083.5z M1205.9,1006.8c36.4,0,73,20.4,89.5,55.4c18.5,35.5,13.6,86.6-12,117.1c-24.7,28.9-59.4,34.4-96.5,33.9l117.5,166.8
		h-30.5L1156,1213.2H945.7V1380H921v-373.3H1205.9z M1672.2,1030.1h-303.4v148h247.8v24.7h-247.8v153.6h303.6c0,7.4-0.8,16.2,0,23.7
		l197.7-373.5h21.9l193.4,373.5h-27.2l-58.5-108h-241.6l-58.9,108h-355.8v-373.5h329L1672.2,1030.1L1672.2,1030.1L1672.2,1030.1z
		 M2129.8,1356.4h278.7v23.7h-303.9v-373.5h25.2V1356.4z"/>
	<path class="st1" d="M1207.5,1030.5c27.6,1.2,54.8,19,66,44.9c12.8,28.9,9.5,67.6-11.6,91.1c-16.1,17.7-37.5,21.9-60.2,22.7h-256
		v-159.1L1207.5,1030.5L1207.5,1030.5z M1769.9,1247.8l110.1-209.9l107.2,209.9H1769.9L1769.9,1247.8z"/>
	<path class="st0" d="M2436.6,1430l-14,7.4c-17.7-19-45.8-21.5-70.1-15.3c-6.6,2.1-15.3,6.6-16.5,14.4c-0.4,3.7,0,7.4,2.5,9.9
		c17.7,12.8,44.1,4.9,65.6,9.1c14.4,2.9,29.7,10.3,37.1,24.7c3.7,9.1,3.7,23.1-1.6,31.3c-19.4,27.1-58.1,28-88.6,20.2
		c-16.1-4.5-33-15.3-41.2-31.3l16.5-7.4c17.7,25.6,50.3,31.7,79.2,23.5c7-2,14.9-7,17.7-14.4c2.3-6.5,2.1-14-1.6-18.6
		c-17.3-16.5-44.1-10.3-66.8-13.2c-13.2-1.6-27.2-3.7-34.2-16.5c-4.5-10.7-3.3-25.1,4.9-33.4c23.1-21.8,64.7-20.6,91.5-7.4
		C2424.5,1417.3,2431.6,1422.1,2436.6,1430L2436.6,1430z M1967.4,1406.7c13.3,0,27.6,9.7,34.2,22.9c5.4,12.8,3.3,29.7-6.6,39.6
		c-9.6,9.9-20.7,13.9-35.6,13.9h-54.2v50H1887v-126.4H1967.4L1967.4,1406.7z M2131.9,1533h-21l-14.9-30.1h-78.3l-15.2,30.1h-19.8
		l63.5-126.5h22.7L2131.9,1533z M2232.1,1406.7c11.2,0,21.5,6,28,16.3c4.1,7.4,6.2,18.5,2.9,27.2c-5,14.1-20.6,19.1-34.2,20.3
		c12,20.6,26,41.9,39.2,62.5h-20.6l-40.4-62.5h-47.8v62.5h-18.7v-126.3H2232.1L2232.1,1406.7z M2296,1533h-19v-126.5h19V1533z"/>
	<path class="st1" d="M1965.3,1422.3c7.7,0,16.1,5.2,19.4,13c2.9,7.4,2,17.7-3.7,23.9c-4.9,4.9-9.8,7.6-17.7,7.6h-58v-44.5H1965.3
		L1965.3,1422.3z M2089,1487.3h-63.9l32.2-65.1C2068.4,1443.2,2078.7,1465.4,2089,1487.3L2089,1487.3z M2232.1,1422.3
		c5.3,0,12.4,3.5,14.4,10.1c1.6,5.4,0.4,11.6-3.3,15.7c-5,4.5-11.5,5.8-17.7,5.8h-66.3v-31.6L2232.1,1422.3L2232.1,1422.3z"/>
</g>
</svg>
