<?xml version="1.0" encoding="utf-8"?>
<!-- Generator: Adobe Illustrator 27.3.1, SVG Export Plug-In . SVG Version: 6.00 Build 0)  -->
<svg version="1.1" id="Layer_1" xmlns="http://www.w3.org/2000/svg" xmlns:xlink="http://www.w3.org/1999/xlink" x="0px" y="0px"
	 viewBox="0 0 1000 1000" style="enable-background:new 0 0 1000 1000;" xml:space="preserve">
<style type="text/css">
	.st0{fill-rule:evenodd;clip-rule:evenodd;}
</style>
<g>
	<path class="st0" d="M432.7,494.8c1.7,0.9,3.8,1.4,6.3,1.4c2.5,0,4.6-0.5,6.3-1.4c1.8-0.8,2.6-2,2.6-3.2c0-1.3-0.8-2.3-2.6-3.2
		c-1.8-0.9-3.8-1.4-6.3-1.3c-2.5-0.1-4.6,0.4-6.3,1.3c-1.8,0.9-2.6,1.9-2.6,3.2C430.1,492.9,430.9,494,432.7,494.8L432.7,494.8z"/>
	<path class="st0" d="M559.6,494.7c1.7,0.8,3.8,1.3,6.3,1.3c2.4,0,4.6-0.5,6.3-1.3c1.8-0.9,2.6-2,2.6-3.2c0-1.3-0.8-2.4-2.6-3.2
		c-1.8-0.8-3.9-1.3-6.3-1.3c-2.5,0-4.5,0.5-6.3,1.3c-1.8,0.8-2.6,1.9-2.6,3.2C557,492.8,557.9,493.8,559.6,494.7L559.6,494.7z"/>
	<path class="st0" d="M723.3,519.5c0,0-108.2,0-108.9,0c-22.8-2.9-24.9-12.8-25.6-16.4c0,0,0,0,0,0c0-0.2-0.1-2.2-0.1-2.8
		c0-0.1,0.1-0.2,0.1-0.3c2-10.7,10.3-16.7,25.3-18.2c0.6,0,108.9,0,108.9,0c2.6,0,4.6-2.1,4.6-4.7c0-2.6-2.1-4.7-4.6-4.7H613.8
		c-0.2,0-0.3,0-0.5,0c-24.3,2.5-31.7,15.4-33.6,25.8c-0.2,0.6-0.3,1.2-0.3,1.8l0.2,4.1c0,0.2,0,0.1,0,0.3c0.7,4.1,2.2,7.7,4.6,10.8
		l-20.6-11.5l-58.4-32.4c-1.5-1.2-3.6-1.4-5.3-0.4l-78.6,45.8v-41.2c0-2.6-2.1-4.6-4.7-4.6c-0.4,0-0.9,0.1-1.3,0.2
		c-0.6,0-1.3,0.2-1.9,0.5l-69.7,33.6c-0.3,0.2-0.6,0.4-0.9,0.6l-7.5,3.7l8,4c0.7,0.3,1.4,0.5,2.1,0.5c0.8,0,1.5-0.1,2.3-0.4l64.2-31
		v41.4c0,1.4,0.6,2.6,1.6,3.5c1.4,1.7,3.9,2.2,5.9,1l27.8-16.2c0,0,0.1,0,0.1,0l15.7-9.2h0l39.2-22.9l41.2,22.9h-72.4l-15.9,9.3h105
		l30.2,16.8c2.2,1.2,5.1,0.4,6.3-1.8c0.5-0.9,0.7-1.8,0.5-2.8c4.6,1.9,10,3.2,16.3,4c0.2,0,0.4,0,0.6,0h109.2c2.6,0,4.7-2.1,4.7-4.7
		C727.9,521.5,725.9,519.5,723.3,519.5L723.3,519.5z"/>
	<path class="st0" d="M279,470.6c-2.3-1.2-5.1-0.2-6.2,2c-0.3,0.6-0.5,1.3-0.5,2c-0.1,0.4-0.2,0.8-0.2,1.3v48.5
		c0,2.6,2.1,4.7,4.6,4.7c2.6,0,4.6-2.1,4.6-4.7v-42.2l49.6,25l10.4-5.1L279,470.6L279,470.6z"/>
</g>
</svg>
